<svg id="Capa_1" data-name="Capa 1" xmlns="http://www.w3.org/2000/svg" viewBox="0 0 512 512"><defs><style>.cls-1{fill:#fabec0;}.cls-2{fill:#fff;}</style></defs><title>github</title><circle class="cls-1" cx="256" cy="256" r="256"/><path class="cls-2" d="M336,128.77c-26.27,14.31-53.36,2.23-72.9,0-86.23-9.89-113.64,77.73-50.81,112.86-16.17,7.31-15.11,44.45,2.21,49.73-40.82,4.08-48.4,54.19-26.5,74.63,26.62,24.84,108.53,23.18,132.54,0,16.77-16.22,19.11-49.63,4.42-65-13.39-14.08-80.56-16.21-79.53-38.27.72-15.44,25-13,39.77-19.14,27.73-11.55,44.05-46.11,33.14-72.71,6.19-1,11.47-2.79,17.66-3.81ZM230,209.13c-32.32-61.35,74.35-56.95,42,0C261.35,216,240.46,216.66,230,209.13Zm59.66,120.51c2.86,27.5-61.09,28.72-68.5,9.57-6.22-16.14,1.53-20.72,19.89-24.88C261.82,309.61,287.71,311.24,289.63,329.64Z" transform="translate(0)"/></svg>